<svg width="48" height="48" viewBox="0 0 48 48" fill="none" xmlns="http://www.w3.org/2000/svg">
<path d="M26.1218 3.13838C25.2914 1.62054 22.7091 1.62054 21.8787 3.13838L0.279047 42.593C0.0853429 42.9467 -0.0104722 43.3428 0.000907424 43.7429C0.012287 44.1431 0.130475 44.5335 0.343991 44.8764C0.557507 45.2193 0.859094 45.5029 1.21946 45.6998C1.57982 45.8967 1.98671 46.0001 2.40061 46H45.5999C46.0138 46.0008 46.4208 45.8979 46.7813 45.7013C47.1418 45.5047 47.4435 45.2212 47.6569 44.8783C47.8704 44.5353 47.9883 44.1448 47.9992 43.7447C48.0101 43.3446 47.9135 42.9486 47.719 42.5953L26.1218 3.13838ZM26.4002 39.0374H21.6003V34.3957H26.4002V39.0374ZM21.6003 29.754V18.1497H26.4002L26.4026 29.754H21.6003Z" fill="url(#paint0_linear_2001_3636)"/>
<defs>
<linearGradient id="paint0_linear_2001_3636" x1="8.5" y1="4.29167" x2="28.9338" y2="47.4517" gradientUnits="userSpaceOnUse">
<stop stop-color="#FFE261"/>
<stop offset="1" stop-color="#F2AE49"/>
</linearGradient>
</defs>
</svg>
