<svg width="32" height="32" viewBox="0 0 32 32" fill="none" xmlns="http://www.w3.org/2000/svg">
<path d="M23.9999 14.6667H7.99992V8.00008H23.9999M21.9999 22.6667C21.4695 22.6667 20.9608 22.456 20.5857 22.081C20.2106 21.7059 19.9999 21.1972 19.9999 20.6667C19.9999 20.1363 20.2106 19.6276 20.5857 19.2525C20.9608 18.8775 21.4695 18.6667 21.9999 18.6667C22.5304 18.6667 23.0391 18.8775 23.4141 19.2525C23.7892 19.6276 23.9999 20.1363 23.9999 20.6667C23.9999 21.1972 23.7892 21.7059 23.4141 22.081C23.0391 22.456 22.5304 22.6667 21.9999 22.6667ZM9.99992 22.6667C9.46949 22.6667 8.96078 22.456 8.5857 22.081C8.21063 21.7059 7.99992 21.1972 7.99992 20.6667C7.99992 20.1363 8.21063 19.6276 8.5857 19.2525C8.96078 18.8775 9.46949 18.6667 9.99992 18.6667C10.5304 18.6667 11.0391 18.8775 11.4141 19.2525C11.7892 19.6276 11.9999 20.1363 11.9999 20.6667C11.9999 21.1972 11.7892 21.7059 11.4141 22.081C11.0391 22.456 10.5304 22.6667 9.99992 22.6667ZM5.33325 21.3334C5.33325 22.5067 5.85325 23.5601 6.66659 24.2934V26.6667C6.66659 27.0204 6.80706 27.3595 7.05711 27.6096C7.30716 27.8596 7.6463 28.0001 7.99992 28.0001H9.33325C9.68687 28.0001 10.026 27.8596 10.2761 27.6096C10.5261 27.3595 10.6666 27.0204 10.6666 26.6667V25.3334H21.3333V26.6667C21.3333 27.0204 21.4737 27.3595 21.7238 27.6096C21.9738 27.8596 22.313 28.0001 22.6666 28.0001H23.9999C24.3535 28.0001 24.6927 27.8596 24.9427 27.6096C25.1928 27.3595 25.3333 27.0204 25.3333 26.6667V24.2934C26.1466 23.5601 26.6666 22.5067 26.6666 21.3334V8.00008C26.6666 3.33341 21.8933 2.66675 15.9999 2.66675C10.1066 2.66675 5.33325 3.33341 5.33325 8.00008V21.3334Z" fill="white"/>
</svg>
