<svg width="40" height="40" viewBox="0 0 40 40" fill="none" xmlns="http://www.w3.org/2000/svg">
<path d="M32.3521 12.0172C33.5669 20.6563 27.0193 27.8977 22.0732 28.5938C17.1271 29.2899 8.83257 24.1016 7.62007 15.4938C7.39185 13.8701 7.48568 12.2173 7.8962 10.6298C8.30672 9.04236 9.0259 7.5513 10.0127 6.24177C10.9994 4.93225 12.2345 3.82991 13.6473 2.99769C15.06 2.16546 16.6229 1.61966 18.2466 1.39144C19.8704 1.16321 21.5231 1.25704 23.1106 1.66756C24.6981 2.07808 26.1891 2.79726 27.4986 3.78403C28.8082 4.77079 29.9105 6.00583 30.7427 7.41862C31.575 8.8314 32.1208 10.3943 32.349 12.018L32.3521 12.0172Z" stroke="black" stroke-width="2" stroke-miterlimit="10"/>
<path d="M18.442 24.0665C15.8771 23.0508 13.2014 20.6993 12.0146 17.3899M28.7264 38.7329C26.1615 37.7172 23.7803 35.6032 22.5936 32.2946" stroke="black" stroke-width="2" stroke-miterlimit="10" stroke-linecap="round"/>
<path d="M20.8365 28.7664L20.1201 32.6421L25.0662 31.9468L23.3092 28.4187L20.8365 28.7664Z" stroke="black" stroke-width="2" stroke-linecap="round" stroke-linejoin="round"/>
</svg>
