<svg width="32" height="32" viewBox="0 0 32 32" fill="none" xmlns="http://www.w3.org/2000/svg">
<path d="M25.3333 4H6.66667C5.2 4 4.01333 5.2 4.01333 6.66667L4 25.3333C4 26.8 5.2 28 6.66667 28H25.3333C26.8 28 28 26.8 28 25.3333V6.66667C28 5.2 26.8 4 25.3333 4ZM22.6667 18.6667H18.6667V22.6667C18.6667 23.4 18.0667 24 17.3333 24H14.6667C13.9333 24 13.3333 23.4 13.3333 22.6667V18.6667H9.33333C8.6 18.6667 8 18.0667 8 17.3333V14.6667C8 13.9333 8.6 13.3333 9.33333 13.3333H13.3333V9.33333C13.3333 8.6 13.9333 8 14.6667 8H17.3333C18.0667 8 18.6667 8.6 18.6667 9.33333V13.3333H22.6667C23.4 13.3333 24 13.9333 24 14.6667V17.3333C24 18.0667 23.4 18.6667 22.6667 18.6667Z" fill="white"/>
</svg>
