<svg width="40" height="40" viewBox="0 0 40 40" fill="none" xmlns="http://www.w3.org/2000/svg">
<path d="M8.6 35C6.51 35 4.72083 34.2656 3.2325 32.7969C1.74417 31.3281 1 29.5625 1 27.5V12.5C1 10.4375 1.74417 8.67188 3.2325 7.20313C4.72083 5.73438 6.51 5 8.6 5H31.4C33.49 5 35.2792 5.73438 36.7675 7.20313C38.2558 8.67188 39 10.4375 39 12.5V27.5C39 29.5625 38.2558 31.3281 36.7675 32.7969C35.2792 34.2656 33.49 35 31.4 35H8.6ZM8.6 12.5H31.4C32.0967 12.5 32.7617 12.5781 33.395 12.7344C34.0283 12.8906 34.63 13.1406 35.2 13.4844V12.5C35.2 11.4687 34.8282 10.5862 34.0847 9.8525C33.3412 9.11875 32.4463 8.75125 31.4 8.75H8.6C7.555 8.75 6.66073 9.1175 5.9172 9.8525C5.17367 10.5875 4.80127 11.47 4.8 12.5V13.4844C5.37 13.1406 5.97167 12.8906 6.605 12.7344C7.23833 12.5781 7.90333 12.5 8.6 12.5ZM5.085 18.5938L26.2225 23.6562C26.5075 23.7187 26.7925 23.7187 27.0775 23.6562C27.3625 23.5937 27.6317 23.4688 27.885 23.2812L34.4875 17.8438C34.1392 17.375 33.6958 16.9925 33.1575 16.6962C32.6192 16.4 32.0333 16.2512 31.4 16.25H8.6C7.77667 16.25 7.05657 16.4613 6.4397 16.8838C5.82283 17.3063 5.37127 17.8762 5.085 18.5938Z" fill="black"/>
</svg>
