<svg width="28" height="28" viewBox="0 0 28 28" fill="none" xmlns="http://www.w3.org/2000/svg">
<path d="M21.7395 3.44278L21.9438 3.23847C22.0975 3.08478 22.2801 2.96289 22.481 2.87974C22.6819 2.7966 22.8972 2.75384 23.1146 2.75391C23.332 2.75397 23.5473 2.79686 23.7481 2.88011C23.9489 2.96337 24.1314 3.08538 24.2851 3.23915C24.4388 3.39293 24.5607 3.57548 24.6438 3.77637C24.727 3.97725 24.7697 4.19255 24.7697 4.40996C24.7696 4.62737 24.7267 4.84265 24.6435 5.04348C24.5602 5.24432 24.4382 5.4268 24.2844 5.58049L24.0801 5.78342C24.4296 6.1754 24.6159 6.68621 24.6009 7.21116C24.5858 7.73611 24.3706 8.23541 23.9992 8.60673L9.88677 22.7205C9.79855 22.8083 9.68811 22.8704 9.56728 22.9002L4.08247 24.2714C3.96769 24.3 3.84746 24.2983 3.73349 24.2667C3.61951 24.2351 3.51565 24.1745 3.43201 24.0909C3.34837 24.0072 3.28779 23.9034 3.25616 23.7894C3.22454 23.6754 3.22294 23.5552 3.25152 23.4404L4.62272 17.9556C4.65272 17.8353 4.7148 17.7253 4.80235 17.6375L18.0235 4.41633C17.8913 4.32327 17.7304 4.27993 17.5693 4.29399C17.4082 4.30804 17.2573 4.37857 17.1432 4.49312L12.6292 9.0085C12.5654 9.07224 12.4898 9.12281 12.4065 9.1573C12.3232 9.1918 12.2339 9.20956 12.1438 9.20956C12.0536 9.20956 11.9644 9.1918 11.8811 9.1573C11.7978 9.12281 11.7221 9.07224 11.6584 9.0085C11.5946 8.94475 11.5441 8.86908 11.5096 8.78579C11.4751 8.7025 11.4573 8.61324 11.4573 8.52309C11.4573 8.43294 11.4751 8.34368 11.5096 8.26039C11.5441 8.1771 11.5946 8.10143 11.6584 8.03768L16.1751 3.52368C16.5467 3.1521 17.0464 2.93683 17.5716 2.92204C18.0969 2.90725 18.6079 3.09407 18.9998 3.44415C19.3766 3.10744 19.8641 2.92119 20.3694 2.92094C20.8747 2.92068 21.3624 3.10644 21.7395 3.44278Z" fill="white"/>
</svg>
