<svg width="32" height="32" viewBox="0 0 32 32" fill="none" xmlns="http://www.w3.org/2000/svg">
<path d="M23.9999 8.00008H21.3333C21.3333 5.05341 18.9466 2.66675 15.9999 2.66675C13.0533 2.66675 10.6666 5.05341 10.6666 8.00008H7.99992C6.53325 8.00008 5.33325 9.20008 5.33325 10.6667V26.6667C5.33325 28.1334 6.53325 29.3334 7.99992 29.3334H23.9999C25.4666 29.3334 26.6666 28.1334 26.6666 26.6667V10.6667C26.6666 9.20008 25.4666 8.00008 23.9999 8.00008ZM13.3333 13.3334C13.3333 14.0667 12.7333 14.6667 11.9999 14.6667C11.2666 14.6667 10.6666 14.0667 10.6666 13.3334V10.6667H13.3333V13.3334ZM15.9999 5.33341C17.4666 5.33341 18.6666 6.53341 18.6666 8.00008H13.3333C13.3333 6.53341 14.5333 5.33341 15.9999 5.33341ZM21.3333 13.3334C21.3333 14.0667 20.7333 14.6667 19.9999 14.6667C19.2666 14.6667 18.6666 14.0667 18.6666 13.3334V10.6667H21.3333V13.3334Z" fill="white"/>
</svg>
