<svg width="32" height="32" viewBox="0 0 32 32" fill="none" xmlns="http://www.w3.org/2000/svg">
<path d="M18 9.5C18 7.51088 18.7902 5.60322 20.1967 4.1967C21.6032 2.79018 23.5109 2 25.5 2H26C26.2652 2 26.5196 2.10536 26.7071 2.29289C26.8946 2.48043 27 2.73478 27 3V15C27 15.158 27.04 15.668 27.118 16.466C27.192 17.236 27.293 18.209 27.401 19.246L27.414 19.369C27.684 21.967 28 25.015 28 26C28 27.0609 27.5786 28.0783 26.8284 28.8284C26.0783 29.5786 25.0609 30 24 30C22.9391 30 21.9217 29.5786 21.1716 28.8284C20.4214 28.0783 20 27.0609 20 26C20 25.162 20.227 22.633 20.458 20.262C20.617 18.627 20.782 17.022 20.889 16H20.5C19.837 16 19.2011 15.7366 18.7322 15.2678C18.2634 14.7989 18 14.163 18 13.5V9.5ZM14.974 2.773C14.9203 2.54294 14.787 2.33931 14.5975 2.19818C14.4081 2.05706 14.1748 1.98756 13.939 2.002C13.409 2.032 12.99 2.469 12.99 3.006V9.006C12.994 9.26989 12.893 9.52455 12.7092 9.71396C12.5254 9.90338 12.2739 10.012 12.01 10.016C11.7461 10.02 11.4914 9.91896 11.302 9.73518C11.1126 9.55139 11.004 9.29989 11 9.036V3C11 2.73478 10.8946 2.48043 10.7071 2.29289C10.5196 2.10536 10.2652 2 10 2C9.73479 2 9.48043 2.10536 9.2929 2.29289C9.10536 2.48043 9 2.73478 9 3V9.065C8.98366 9.32266 8.86781 9.56388 8.67691 9.7377C8.48602 9.91153 8.23504 10.0044 7.97698 9.99656C7.71892 9.98877 7.47399 9.88098 7.29393 9.69596C7.11387 9.51094 7.01278 9.26318 7.012 9.005V3.007C7.01132 2.76073 6.92041 2.52325 6.75647 2.33947C6.59254 2.15569 6.36694 2.03835 6.12234 2.00966C5.87775 1.98096 5.63112 2.04289 5.4291 2.18374C5.22707 2.32458 5.08367 2.53457 5.026 2.774C5.004 2.866 4 7.14 4 10C3.99923 10.9039 4.20304 11.7963 4.59616 12.6102C4.98928 13.4242 5.56153 14.1386 6.27 14.7C6.766 15.094 7 15.523 7 15.882C6.99984 15.9201 6.99751 15.9582 6.993 15.996C6.933 16.5 6.686 18.59 6.454 20.749C6.226 22.872 6 25.16 6 26C6 27.0609 6.42143 28.0783 7.17157 28.8284C7.92172 29.5786 8.93914 30 10 30C11.0609 30 12.0783 29.5786 12.8284 28.8284C13.5786 28.0783 14 27.0609 14 26C14 25.161 13.774 22.872 13.546 20.749C13.314 18.59 13.066 16.499 13.006 15.996C13.0018 15.9581 12.9998 15.9201 13 15.882C13 15.523 13.234 15.094 13.73 14.7C14.4385 14.1386 15.0107 13.4242 15.4038 12.6102C15.797 11.7963 16.0008 10.9039 16 10C16 7.138 14.993 2.856 14.974 2.773ZM13.894 2.005L13.914 2.004H13.906L13.898 2.005H13.894Z" fill="white"/>
</svg>
