<svg width="40" height="40" viewBox="0 0 40 40" fill="none" xmlns="http://www.w3.org/2000/svg">
<rect width="40" height="40" rx="10" fill="#8ED8FF"/>
<path fill-rule="evenodd" clip-rule="evenodd" d="M15.6666 11.3335C15.3793 11.3335 15.1038 11.4476 14.9006 11.6508C14.6974 11.854 14.5833 12.1295 14.5833 12.4168V13.5002H13.5C12.9253 13.5002 12.3742 13.7284 11.9679 14.1348C11.5616 14.5411 11.3333 15.0922 11.3333 15.6668V26.5002C11.3333 27.0748 11.5616 27.6259 11.9679 28.0322C12.3742 28.4386 12.9253 28.6668 13.5 28.6668H26.5C27.0746 28.6668 27.6257 28.4386 28.032 28.0322C28.4384 27.6259 28.6666 27.0748 28.6666 26.5002V15.6668C28.6666 15.0922 28.4384 14.5411 28.032 14.1348C27.6257 13.7284 27.0746 13.5002 26.5 13.5002H25.4166V12.4168C25.4166 12.1295 25.3025 11.854 25.0993 11.6508C24.8962 11.4476 24.6206 11.3335 24.3333 11.3335C24.046 11.3335 23.7704 11.4476 23.5673 11.6508C23.3641 11.854 23.25 12.1295 23.25 12.4168V13.5002H16.75V12.4168C16.75 12.1295 16.6358 11.854 16.4327 11.6508C16.2295 11.4476 15.954 11.3335 15.6666 11.3335ZM15.6666 16.7502C15.3793 16.7502 15.1038 16.8643 14.9006 17.0675C14.6974 17.2706 14.5833 17.5462 14.5833 17.8335C14.5833 18.1208 14.6974 18.3964 14.9006 18.5995C15.1038 18.8027 15.3793 18.9168 15.6666 18.9168H24.3333C24.6206 18.9168 24.8962 18.8027 25.0993 18.5995C25.3025 18.3964 25.4166 18.1208 25.4166 17.8335C25.4166 17.5462 25.3025 17.2706 25.0993 17.0675C24.8962 16.8643 24.6206 16.7502 24.3333 16.7502H15.6666Z" fill="white"/>
</svg>
