<svg width="24" height="24" viewBox="0 0 24 24" fill="none" xmlns="http://www.w3.org/2000/svg">
<rect width="24" height="24" rx="8" fill="#616672"/>
<path d="M12.536 4.62548L19.336 8.38707C19.5356 8.48572 19.7035 8.6375 19.8208 8.82537C19.9381 9.01324 20.0001 9.22976 20 9.45061V10.591C20 11.1374 19.552 11.5809 19 11.5809H18.4V17.9162H19.2C19.4122 17.9162 19.6157 17.9996 19.7657 18.1481C19.9157 18.2966 20 18.4981 20 18.7081C20 18.9181 19.9157 19.1195 19.7657 19.2681C19.6157 19.4166 19.4122 19.5 19.2 19.5H4.8C4.58783 19.5 4.38434 19.4166 4.23431 19.2681C4.08429 19.1195 4 18.9181 4 18.7081C4 18.4981 4.08429 18.2966 4.23431 18.1481C4.38434 17.9996 4.58783 17.9162 4.8 17.9162H5.6V11.5809H5C4.448 11.5809 4 11.1374 4 10.591V9.45061C4 9.03723 4.216 8.65711 4.5648 8.44171L11.4632 4.62548C11.6299 4.54296 11.8137 4.5 12 4.5C12.1863 4.5 12.3693 4.54296 12.536 4.62548ZM16.8 11.5809H7.2V17.9162H9.6V13.1647H11.2V17.9162H12.8V13.1647H14.4V17.9162H16.8V11.5809ZM12 6.13091L5.6 9.69452V9.99703H18.4V9.69452L12 6.13091ZM12 7.62129C12.2122 7.62129 12.4157 7.70472 12.5657 7.85324C12.7157 8.00175 12.8 8.20317 12.8 8.4132C12.8 8.62323 12.7157 8.82466 12.5657 8.97317C12.4157 9.12168 12.2122 9.20512 12 9.20512C11.7878 9.20512 11.5843 9.12168 11.4343 8.97317C11.2843 8.82466 11.2 8.62323 11.2 8.4132C11.2 8.20317 11.2843 8.00175 11.4343 7.85324C11.5843 7.70472 11.7878 7.62129 12 7.62129Z" fill="white"/>
</svg>
