<svg width="24" height="24" viewBox="0 0 24 24" fill="none" xmlns="http://www.w3.org/2000/svg">
<path d="M20.9994 3H2.99889C2.81664 3.00069 2.638 3.06111 2.4822 3.17477C2.32639 3.28842 2.19932 3.45101 2.11467 3.64502C2.03001 3.83903 1.99097 4.05712 2.00176 4.27582C2.01254 4.49452 2.07273 4.70554 2.17586 4.88617L11.1761 20.514C11.5491 21.162 12.4472 21.162 12.8212 20.514L21.8214 4.88617C21.9256 4.70591 21.9867 4.49479 21.9981 4.27572C22.0094 4.05666 21.9706 3.83804 21.8859 3.64362C21.8012 3.4492 21.6737 3.28641 21.5174 3.17294C21.3612 3.05947 21.182 2.99966 20.9994 3Z" fill="black"/>
</svg>
