<svg width="44" height="44" viewBox="0 0 44 44" fill="none" xmlns="http://www.w3.org/2000/svg">
<path d="M33.0001 23.8298H23.8334V32.9964C23.8334 33.4826 23.6403 33.949 23.2964 34.2928C22.9526 34.6366 22.4863 34.8297 22.0001 34.8297C21.5139 34.8297 21.0475 34.6366 20.7037 34.2928C20.3599 33.949 20.1667 33.4826 20.1667 32.9964V23.8298H11.0001C10.5139 23.8298 10.0475 23.6366 9.70372 23.2928C9.3599 22.949 9.16675 22.4826 9.16675 21.9964C9.16675 21.5102 9.3599 21.0439 9.70372 20.7001C10.0475 20.3562 10.5139 20.1631 11.0001 20.1631H20.1667V10.9964C20.1667 10.5102 20.3599 10.0439 20.7037 9.70006C21.0475 9.35624 21.5139 9.16309 22.0001 9.16309C22.4863 9.16309 22.9526 9.35624 23.2964 9.70006C23.6403 10.0439 23.8334 10.5102 23.8334 10.9964V20.1631H33.0001C33.4863 20.1631 33.9526 20.3562 34.2964 20.7001C34.6403 21.0439 34.8334 21.5102 34.8334 21.9964C34.8334 22.4826 34.6403 22.949 34.2964 23.2928C33.9526 23.6366 33.4863 23.8298 33.0001 23.8298Z" fill="#8A91A1"/>
</svg>
