<svg width="24" height="24" viewBox="0 0 24 24" fill="none" xmlns="http://www.w3.org/2000/svg">
<path d="M4 3.0006V21.0011C4.00069 21.1834 4.06111 21.362 4.17477 21.5178C4.28842 21.6736 4.45101 21.8007 4.64502 21.8853C4.83903 21.97 5.05712 22.009 5.27582 21.9982C5.49452 21.9875 5.70554 21.9273 5.88617 21.8241L21.514 12.8239C22.162 12.4509 22.162 11.5528 21.514 11.1788L5.88617 2.17858C5.70591 2.0744 5.49479 2.01331 5.27572 2.00194C5.05666 1.99057 4.83804 2.02936 4.64362 2.11409C4.4492 2.19882 4.28641 2.32626 4.17294 2.48255C4.05947 2.63884 3.99966 2.81802 4 3.0006Z" fill="black"/>
</svg>
