<svg width="28" height="27" viewBox="0 0 28 27" fill="none" xmlns="http://www.w3.org/2000/svg">
<path d="M9.5 3.9375C9.5 3.48995 9.67779 3.06072 9.99426 2.74426C10.3107 2.42779 10.7399 2.25 11.1875 2.25H16.8125C17.2601 2.25 17.6893 2.42779 18.0057 2.74426C18.3222 3.06072 18.5 3.48995 18.5 3.9375V5.0625C18.5 5.51005 18.3222 5.93928 18.0057 6.25574C17.6893 6.57221 17.2601 6.75 16.8125 6.75H11.1875C10.7399 6.75 10.3107 6.57221 9.99426 6.25574C9.67779 5.93928 9.5 5.51005 9.5 5.0625V3.9375Z" fill="#51545E"/>
<path fill-rule="evenodd" clip-rule="evenodd" d="M7.8125 4.54175C6.39725 4.6205 5.504 4.8455 4.86387 5.48675C3.875 6.47562 3.875 8.06637 3.875 11.2479V17.9979C3.875 21.1805 3.875 22.7712 4.86387 23.7601C5.85162 24.7479 7.4435 24.7479 10.625 24.7479H17.375C20.5565 24.7479 22.1484 24.7479 23.1361 23.7601C24.125 22.7701 24.125 21.1805 24.125 17.9979V11.2479C24.125 8.06637 24.125 6.47562 23.1361 5.48675C22.496 4.8455 21.6027 4.6205 20.1875 4.54175V5.06262C20.1875 5.95773 19.8319 6.81617 19.199 7.44911C18.566 8.08204 17.7076 8.43762 16.8125 8.43762H11.1875C10.2924 8.43762 9.43395 8.08204 8.80101 7.44911C8.16808 6.81617 7.8125 5.95773 7.8125 5.06262V4.54175ZM7.53125 11.8126C7.53125 11.5888 7.62014 11.3742 7.77838 11.216C7.93661 11.0578 8.15122 10.9689 8.375 10.9689H19.625C19.8488 10.9689 20.0634 11.0578 20.2216 11.216C20.3799 11.3742 20.4687 11.5888 20.4687 11.8126C20.4687 12.0364 20.3799 12.251 20.2216 12.4092C20.0634 12.5675 19.8488 12.6564 19.625 12.6564H8.375C8.15122 12.6564 7.93661 12.5675 7.77838 12.4092C7.62014 12.251 7.53125 12.0364 7.53125 11.8126ZM8.65625 15.7501C8.65625 15.5263 8.74514 15.3117 8.90338 15.1535C9.06161 14.9953 9.27622 14.9064 9.5 14.9064H18.5C18.7238 14.9064 18.9384 14.9953 19.0966 15.1535C19.2549 15.3117 19.3437 15.5263 19.3437 15.7501C19.3437 15.9739 19.2549 16.1885 19.0966 16.3467C18.9384 16.505 18.7238 16.5939 18.5 16.5939H9.5C9.27622 16.5939 9.06161 16.505 8.90338 16.3467C8.74514 16.1885 8.65625 15.9739 8.65625 15.7501ZM9.78125 19.6876C9.78125 19.4638 9.87014 19.2492 10.0284 19.091C10.1866 18.9328 10.4012 18.8439 10.625 18.8439H17.375C17.5988 18.8439 17.8134 18.9328 17.9716 19.091C18.1299 19.2492 18.2187 19.4638 18.2187 19.6876C18.2187 19.9114 18.1299 20.126 17.9716 20.2842C17.8134 20.4425 17.5988 20.5314 17.375 20.5314H10.625C10.4012 20.5314 10.1866 20.4425 10.0284 20.2842C9.87014 20.126 9.78125 19.9114 9.78125 19.6876Z" fill="#51545E"/>
</svg>
