<svg width="28" height="27" viewBox="0 0 28 27" fill="none" xmlns="http://www.w3.org/2000/svg">
<path fill-rule="evenodd" clip-rule="evenodd" d="M8.67087 3.6675C8.73749 3.04651 9.03134 2.47208 9.4959 2.05466C9.96047 1.63723 10.5629 1.4063 11.1875 1.40625H16.8125C17.437 1.4063 18.0395 1.63723 18.5041 2.05466C18.9687 2.47208 19.2625 3.04651 19.3291 3.6675C20.1886 3.6855 20.93 3.72937 21.5645 3.84637C22.4172 4.00388 23.1429 4.30087 23.7335 4.89262C24.4107 5.56875 24.701 6.42263 24.8382 7.43513C24.9687 8.40938 24.9687 9.65025 24.9687 11.1881V18.0619C24.9687 19.5998 24.9687 20.8406 24.8382 21.816C24.701 22.8285 24.4107 23.6812 23.7335 24.3585C23.0562 25.0358 22.2035 25.326 21.191 25.4633C20.2156 25.5938 18.9747 25.5938 17.4369 25.5938H10.5631C9.02525 25.5938 7.78437 25.5938 6.809 25.4633C5.7965 25.326 4.94375 25.0358 4.2665 24.3585C3.58925 23.6812 3.299 22.8285 3.16288 21.816C3.03125 20.8406 3.03125 19.5998 3.03125 18.0619V11.1881C3.03125 9.65025 3.03125 8.40937 3.16288 7.434C3.29788 6.4215 3.59038 5.56875 4.2665 4.8915C4.85712 4.30088 5.58275 4.00275 6.4355 3.84637C7.07 3.72937 7.8125 3.6855 8.67087 3.6675ZM8.67312 5.355C7.86537 5.373 7.24212 5.4135 6.74037 5.50575C6.10362 5.62275 5.7335 5.81175 5.46012 6.08512C5.1485 6.39675 4.946 6.83325 4.83462 7.66012C4.721 8.50838 4.71875 9.63562 4.71875 11.25V18C4.71875 19.6144 4.721 20.7405 4.83462 21.591C4.946 22.4167 5.14962 22.8532 5.46012 23.1649C5.77175 23.4765 6.20825 23.679 7.03512 23.7904C7.88337 23.904 9.01062 23.9062 10.625 23.9062H17.375C18.9894 23.9062 20.1155 23.904 20.966 23.7904C21.7917 23.679 22.2282 23.4754 22.5399 23.1649C22.8515 22.8532 23.054 22.4167 23.1654 21.5899C23.279 20.7405 23.2812 19.6144 23.2812 18V11.25C23.2812 9.63562 23.279 8.50838 23.1654 7.659C23.054 6.83325 22.8504 6.39675 22.5399 6.08512C22.2654 5.81175 21.8964 5.62388 21.2596 5.50575C20.7579 5.4135 20.1346 5.373 19.3269 5.35613C19.2549 5.97246 18.959 6.54088 18.4955 6.9534C18.0319 7.36592 17.433 7.5938 16.8125 7.59375H11.1875C10.5668 7.59377 9.96774 7.36573 9.50417 6.95298C9.0406 6.54023 8.74485 5.97154 8.67312 5.355ZM11.1875 3.09375C10.9637 3.09375 10.7491 3.18264 10.5909 3.34088C10.4326 3.49911 10.3437 3.71372 10.3437 3.9375V5.0625C10.3437 5.52825 10.7217 5.90625 11.1875 5.90625H16.8125C17.0363 5.90625 17.2509 5.81736 17.4091 5.65912C17.5674 5.50089 17.6562 5.28628 17.6562 5.0625V3.9375C17.6562 3.71372 17.5674 3.49911 17.4091 3.34088C17.2509 3.18264 17.0363 3.09375 16.8125 3.09375H11.1875ZM7.53125 11.8125C7.53125 11.5887 7.62014 11.3741 7.77838 11.2159C7.93661 11.0576 8.15122 10.9688 8.375 10.9688H19.625C19.8488 10.9688 20.0634 11.0576 20.2216 11.2159C20.3799 11.3741 20.4687 11.5887 20.4687 11.8125C20.4687 12.0363 20.3799 12.2509 20.2216 12.4091C20.0634 12.5674 19.8488 12.6562 19.625 12.6562H8.375C8.15122 12.6562 7.93661 12.5674 7.77838 12.4091C7.62014 12.2509 7.53125 12.0363 7.53125 11.8125ZM8.65625 15.75C8.65625 15.5262 8.74514 15.3116 8.90338 15.1534C9.06161 14.9951 9.27622 14.9062 9.5 14.9062H18.5C18.7238 14.9062 18.9384 14.9951 19.0966 15.1534C19.2549 15.3116 19.3437 15.5262 19.3437 15.75C19.3437 15.9738 19.2549 16.1884 19.0966 16.3466C18.9384 16.5049 18.7238 16.5938 18.5 16.5938H9.5C9.27622 16.5938 9.06161 16.5049 8.90338 16.3466C8.74514 16.1884 8.65625 15.9738 8.65625 15.75ZM9.78125 19.6875C9.78125 19.4637 9.87014 19.2491 10.0284 19.0909C10.1866 18.9326 10.4012 18.8438 10.625 18.8438H17.375C17.5988 18.8438 17.8134 18.9326 17.9716 19.0909C18.1299 19.2491 18.2187 19.4637 18.2187 19.6875C18.2187 19.9113 18.1299 20.1259 17.9716 20.2841C17.8134 20.4424 17.5988 20.5312 17.375 20.5312H10.625C10.4012 20.5312 10.1866 20.4424 10.0284 20.2841C9.87014 20.1259 9.78125 19.9113 9.78125 19.6875Z" fill="#B4BBC5"/>
</svg>
