<svg width="27" height="27" viewBox="0 0 27 27" fill="none" xmlns="http://www.w3.org/2000/svg">
<path d="M17.7484 24.0847H17.7485V24.0784V20.3916C17.7485 19.7122 17.4765 19.0619 16.9945 18.5834C16.5127 18.1051 15.8606 17.8375 15.1819 17.8375H11.7164C10.3048 17.8375 9.14983 18.9752 9.14983 20.3916V23.4644L9.12191 23.4736L9.11746 24.0829C9.11498 24.4228 8.835 24.7075 8.47759 24.7075H6.16725C4.32933 24.7075 2.85 23.23 2.85 21.4205V10.9389C2.86777 10.3007 3.1727 9.70182 3.68433 9.30812L3.69078 9.30316L3.69714 9.29807L11.5566 3.00688L11.5684 2.99747L11.5798 2.98765C12.6271 2.08662 14.1759 2.05857 15.2558 2.92157L15.2584 2.9236L23.2932 9.29406C23.7798 9.70141 24.0591 10.2995 24.0591 10.928V21.4312C24.0591 22.2996 23.7111 23.1335 23.0898 23.7487C22.4683 24.364 21.6244 24.7097 20.744 24.7075H20.7418H18.3775C18.2079 24.7075 18.0465 24.6402 17.9289 24.5226C17.8115 24.4052 17.7472 24.2474 17.7484 24.0847Z" stroke="#B4BBC5" stroke-width="1.7"/>
</svg>
