<svg width="28" height="27" viewBox="0 0 28 27" fill="none" xmlns="http://www.w3.org/2000/svg">
<path d="M10.5618 24.028V20.3587C10.5618 19.4221 11.3267 18.6628 12.2702 18.6628H15.7192C16.1723 18.6628 16.6069 18.8414 16.9272 19.1595C17.2476 19.4776 17.4276 19.9089 17.4276 20.3587V24.028C17.4247 24.4174 17.5786 24.7918 17.8549 25.0682C18.1313 25.3446 18.5074 25.5 18.8996 25.5H21.2527C22.3517 25.5028 23.4066 25.0714 24.1847 24.301C24.9628 23.5305 25.4001 22.4844 25.4001 21.3934V10.9402C25.4001 10.0589 25.0066 9.22301 24.3256 8.6576L16.3209 2.31104C14.9285 1.19827 12.9334 1.2342 11.5826 2.39637L3.76051 8.6576C3.04739 9.20634 2.62116 10.0448 2.6001 10.9402V21.3827C2.6001 23.6566 4.45695 25.5 6.7475 25.5H9.04684C9.86157 25.5 10.5237 24.8474 10.5296 24.0387L10.5618 24.028Z" fill="#51545E"/>
</svg>
