<svg width="28" height="27" viewBox="0 0 28 27" fill="none" xmlns="http://www.w3.org/2000/svg">
<path d="M13.9497 21.2657H22.7846C23.1286 21.2849 23.4719 21.2158 23.7816 21.0648C24.0913 20.9137 24.3572 20.6859 24.5539 20.403C24.7506 20.12 24.8715 19.7915 24.9052 19.4485C24.9388 19.1056 24.8841 18.7598 24.7462 18.444C24.2791 17.0325 22.4174 15.3395 22.4174 13.6737C22.4174 9.97636 22.4174 9.00337 20.596 6.82905C20.0065 6.12919 19.2757 5.56195 18.4515 5.16459L17.4357 4.6716C17.2652 4.56872 17.1182 4.43132 17.004 4.26821C16.8898 4.10511 16.8111 3.91993 16.7727 3.72456C16.6712 3.06605 16.323 2.4708 15.7988 2.05956C15.2745 1.64831 14.6135 1.45185 13.9497 1.51003C13.298 1.47089 12.655 1.67611 12.1464 2.0856C11.6379 2.49509 11.3002 3.07945 11.1994 3.72456C11.1536 3.92667 11.064 4.11626 10.9369 4.27991C10.8098 4.44357 10.6483 4.57729 10.4638 4.6716L9.44797 5.16459C8.62421 5.5621 7.89383 6.12933 7.30477 6.82905C5.48461 9.00337 5.48461 9.97636 5.48461 13.6737C5.48461 15.3395 3.70726 16.8625 3.24022 18.3584C2.95869 19.2626 2.80301 21.2657 5.16027 21.2657H13.9497Z" stroke="#B4BBC5" stroke-width="1.7482" stroke-linecap="round" stroke-linejoin="round"/>
<path d="M18.1831 21.2659C18.1942 21.8248 18.0923 22.3803 17.8835 22.8989C17.6747 23.4175 17.3633 23.8886 16.968 24.2839C16.5727 24.6793 16.1016 24.9907 15.5829 25.1995C15.0643 25.4083 14.5089 25.5102 13.9499 25.499C13.3908 25.5109 12.8351 25.4095 12.3162 25.2009C11.7973 24.9924 11.326 24.681 10.9306 24.2855C10.5353 23.89 10.224 23.4186 10.0156 22.8997C9.8072 22.3807 9.70597 21.825 9.718 21.2659" stroke="#B4BBC5" stroke-width="1.7482" stroke-linecap="round" stroke-linejoin="round"/>
</svg>
