<svg width="28" height="27" viewBox="0 0 28 27" fill="none" xmlns="http://www.w3.org/2000/svg">
<path d="M24.9995 19.0869C24.9522 19.5575 24.7824 20.0076 24.5072 20.3924C24.2567 20.7634 23.9186 21.0669 23.5228 21.2762C23.1271 21.4855 22.6858 21.5941 22.238 21.5924H18.7081C18.6457 21.9155 18.5532 22.2321 18.4319 22.538C18.1902 23.1249 17.8344 23.6581 17.3851 24.1067C16.9358 24.5553 16.402 24.9104 15.8145 25.1515C15.2202 25.3915 14.5826 25.5091 13.9415 25.4995H13.8454C13.2522 25.494 12.6655 25.3759 12.1165 25.1515C11.5199 24.92 10.9796 24.5641 10.5316 24.1075C10.0792 23.6616 9.72357 23.1273 9.48701 22.538C9.36561 22.2317 9.27316 21.9147 9.21086 21.5912H5.82501C5.3828 21.6265 4.93871 21.552 4.53231 21.3743C4.1259 21.1965 3.7698 20.9211 3.49573 20.5724C3.23645 20.1517 3.07394 19.6786 3.01996 19.1874C2.96597 18.6962 3.02185 18.1991 3.18356 17.7321C3.44464 17.0394 3.8002 16.3861 4.24014 15.7906C4.74587 15.1801 5.08503 14.4493 5.22468 13.6691C5.22468 10.206 5.22468 9.03125 7.12172 6.77774C7.74714 6.031 8.52489 5.42634 9.40297 5.0042L10.3395 4.54822C10.3853 4.51925 10.4259 4.48274 10.4595 4.44022C10.4958 4.3948 10.5205 4.34127 10.5316 4.28423C10.6679 3.69907 10.9487 3.15733 11.3482 2.70838C11.7477 2.25943 12.2533 1.91756 12.8188 1.71392C13.3846 1.50978 13.9925 1.45049 14.5871 1.54146C15.1816 1.63242 15.744 1.87076 16.2227 2.2347C16.8794 2.7575 17.3093 3.51295 17.4234 4.34422V4.46422C17.4583 4.51321 17.5033 4.55413 17.5554 4.58422L18.4199 5.0042C19.2964 5.42419 20.0744 6.02416 20.7012 6.76574C22.5982 9.03125 22.5982 10.206 22.5982 13.6691C22.7591 14.4971 23.1265 15.2722 23.6668 15.9226C24.099 16.4998 24.4496 17.1334 24.7114 17.8041C24.9083 18.2025 25.0079 18.6417 24.9995 19.0869Z" fill="#51545E"/>
</svg>
